<svg width="18" height="18" viewBox="0 0 18 18" fill="none" xmlns="http://www.w3.org/2000/svg">
<path d="M13.8415 5.43031L13.1538 5.96805C12.2161 4.76942 10.7577 4 9.12011 4C6.29241 4 4.00366 6.28631 4 9.11523C3.99635 11.9466 6.28997 14.2427 9.12011 14.2427C11.3308 14.2427 13.2147 12.8404 13.9317 10.876C13.95 10.8248 13.9232 10.7675 13.872 10.7504L13.1806 10.5126C13.1565 10.5044 13.1301 10.5059 13.1071 10.5168C13.0841 10.5277 13.0662 10.5472 13.0574 10.5711C13.0355 10.6321 13.0111 10.6931 12.9855 10.7528C12.7745 11.2528 12.4721 11.7015 12.0868 12.0868C11.7046 12.4697 11.2521 12.7753 10.7541 12.9867C10.2383 13.205 9.68833 13.3159 9.12255 13.3159C8.55554 13.3159 8.00683 13.205 7.49104 12.9867C6.99253 12.7762 6.53984 12.4705 6.15828 12.0868C5.77504 11.7046 5.46981 11.2516 5.25961 10.7528C5.04134 10.2358 4.93038 9.68711 4.93038 9.12011C4.93038 8.5531 5.04134 8.00439 5.25961 7.48738C5.47056 6.98744 5.77296 6.53871 6.15828 6.1534C6.5436 5.76808 6.99232 5.46567 7.49104 5.25351C8.00683 5.03524 8.55676 4.92428 9.12255 4.92428C9.68955 4.92428 10.2383 5.03524 10.7541 5.25351C11.2526 5.46402 11.7053 5.76968 12.0868 6.1534C12.2075 6.27411 12.3209 6.40215 12.4258 6.53628L11.6917 7.10938C11.6772 7.12061 11.6662 7.13572 11.6598 7.15296C11.6535 7.1702 11.6522 7.18887 11.656 7.20683C11.6598 7.22479 11.6687 7.24131 11.6814 7.25449C11.6942 7.26766 11.7105 7.27696 11.7283 7.28131L13.8695 7.80563C13.9305 7.82026 13.9902 7.77393 13.9902 7.71174L14 5.50591C13.9988 5.42544 13.9049 5.38032 13.8415 5.43031Z" fill="white" fill-opacity="0.8"/>
<circle cx="9" cy="9" r="8.75" stroke="white" stroke-width="0.5"/>
</svg>
