<svg width="10" height="10" viewBox="0 0 10 10" fill="none" xmlns="http://www.w3.org/2000/svg">
<path d="M3.33359 5.83244C3.7031 5.83234 4.06216 5.95507 4.35431 6.1813C4.64646 6.40755 4.85513 6.72447 4.94751 7.08224H9.58263C9.68673 7.08205 9.78714 7.12085 9.86407 7.19099C9.941 7.26112 9.98889 7.35752 9.99829 7.46121C10.0077 7.56488 9.97795 7.66833 9.91489 7.75117C9.85184 7.83401 9.76006 7.89024 9.65762 7.90878L9.58263 7.91545L4.94751 7.91628C4.85544 8.27436 4.6469 8.59166 4.35472 8.81822C4.06254 9.04478 3.70332 9.16774 3.33359 9.16774C2.96386 9.16774 2.60463 9.04478 2.31245 8.81822C2.02027 8.59166 1.81174 8.27436 1.71967 7.91628L0.417371 7.91545C0.313265 7.91564 0.21286 7.87685 0.135928 7.80671C0.0589956 7.73657 0.0111114 7.64017 0.00170493 7.53649C-0.00770152 7.43281 0.0220514 7.32937 0.0851046 7.24653C0.148158 7.16369 0.239942 7.10746 0.342382 7.08891L0.417371 7.08224H1.71967C1.81205 6.72447 2.02072 6.40755 2.31287 6.1813C2.60502 5.95507 2.96408 5.83234 3.33359 5.83244ZM3.33359 6.66564C3.11261 6.66564 2.90068 6.75343 2.74442 6.90968C2.58817 7.06594 2.50038 7.27787 2.50038 7.49885C2.50038 7.71983 2.58817 7.93176 2.74442 8.08801C2.90068 8.24427 3.11261 8.33205 3.33359 8.33205C3.55457 8.33205 3.7665 8.24427 3.92275 8.08801C4.07901 7.93176 4.16679 7.71983 4.16679 7.49885C4.16679 7.27787 4.07901 7.06594 3.92275 6.90968C3.7665 6.75343 3.55457 6.66564 3.33359 6.66564ZM6.66641 5.38597e-08C7.03592 -9.38587e-05 7.39498 0.122628 7.68713 0.348868C7.97928 0.575108 8.18795 0.892033 8.28033 1.24981H9.58263C9.68673 1.24962 9.78714 1.28841 9.86407 1.35855C9.941 1.42869 9.98889 1.52509 9.99829 1.62877C10.0077 1.73245 9.97795 1.83589 9.91489 1.91873C9.85184 2.00157 9.76006 2.0578 9.65762 2.07635L9.58263 2.08301L8.28033 2.08385C8.18826 2.44193 7.97972 2.75922 7.68754 2.98578C7.39537 3.21234 7.03614 3.3353 6.66641 3.3353C6.29668 3.3353 5.93746 3.21234 5.64528 2.98578C5.3531 2.75922 5.14456 2.44193 5.05249 2.08385L0.417371 2.08301C0.313265 2.0832 0.21286 2.04441 0.135928 1.97427C0.0589956 1.90413 0.0111114 1.80773 0.00170493 1.70405C-0.00770152 1.60037 0.0220514 1.49693 0.0851046 1.41409C0.148158 1.33125 0.239942 1.27502 0.342382 1.25647L0.417371 1.24981H5.05249C5.14487 0.892033 5.35354 0.575108 5.64569 0.348868C5.93784 0.122628 6.2969 -9.38587e-05 6.66641 5.38597e-08ZM6.66641 0.833205C6.44543 0.833205 6.2335 0.920989 6.07725 1.07725C5.92099 1.2335 5.83321 1.44543 5.83321 1.66641C5.83321 1.88739 5.92099 2.09932 6.07725 2.25558C6.2335 2.41183 6.44543 2.49962 6.66641 2.49962C6.88739 2.49962 7.09932 2.41183 7.25557 2.25558C7.41183 2.09932 7.49962 1.88739 7.49962 1.66641C7.49962 1.44543 7.41183 1.2335 7.25557 1.07725C7.09932 0.920989 6.88739 0.833205 6.66641 0.833205Z" fill="white" fill-opacity="0.8"/>
</svg>
